<?xml version="1.0" encoding="UTF-8"?>
<svg version="1.1" xmlns="http://www.w3.org/2000/svg" width="2228" height="1859">
<path d="M0 0 C1.67402118 1.50330669 3.33860979 3.01720381 4.9921875 4.54296875 C7.03715292 6.41840336 9.130101 8.20751283 11.25390625 9.9921875 C47.95026363 42.21158928 69.30626539 93.70058596 72.9765625 141.625 C76.42814859 197.22531009 59.36303765 252.26399356 22.2890625 294.30078125 C-8.29367376 328.09084985 -46.99728152 351.06324241 -91.74609375 360.6171875 C-92.92413574 360.88184814 -92.92413574 360.88184814 -94.12597656 361.15185547 C-107.04761938 363.93893063 -120.150217 363.9237515 -133.30859375 363.9921875 C-134.16870056 364.000224 -135.02880737 364.0082605 -135.91497803 364.01654053 C-152.05037546 364.13074689 -167.96857197 362.49548813 -183.62109375 358.4296875 C-184.41717041 358.23044678 -185.21324707 358.03120605 -186.03344727 357.82592773 C-193.72613701 355.80647563 -201.13965981 353.02962214 -208.50146484 350.0324707 C-209.37496582 349.69046631 -210.2484668 349.34846191 -211.1484375 348.99609375 C-211.91663818 348.6822876 -212.68483887 348.36848145 -213.47631836 348.04516602 C-218.96576254 347.01010141 -223.91413347 351.55069972 -228.25390625 354.48046875 C-228.9949057 354.97544357 -229.73590515 355.4704184 -230.49935913 355.98039246 C-232.95965967 357.62564406 -235.4153767 359.27760391 -237.87109375 360.9296875 C-239.6150069 362.09799587 -241.35915211 363.26595791 -243.10351562 364.43359375 C-257.63829391 374.17071914 -272.13698818 383.96184539 -286.6328125 393.75683594 C-295.58204644 399.80166819 -304.54326048 405.82736363 -313.53515625 411.80859375 C-314.4105304 412.39099823 -315.28590454 412.97340271 -316.18780518 413.57345581 C-320.3134064 416.31716407 -324.44119065 419.05750955 -328.57226562 421.79296875 C-336.66201365 427.15973331 -344.65567712 432.63510421 -352.56842041 438.25967407 C-358.85431135 442.71884364 -365.239897 447.01313124 -371.668396 451.26321411 C-375.21939054 453.61176751 -378.76383787 455.97017008 -382.30859375 458.328125 C-383.06453827 458.83084427 -383.82048279 459.33356354 -384.59933472 459.85151672 C-393.96718531 466.08705466 -403.29411751 472.38324861 -412.62109375 478.6796875 C-413.52333679 479.28867889 -414.42557983 479.89767029 -415.35516357 480.52511597 C-419.97377761 483.64269325 -424.59198281 486.76087539 -429.20996094 489.87939453 C-437.32709557 495.36044947 -445.44799081 500.83592769 -453.56866455 506.31173706 C-458.04463413 509.32998353 -462.52035093 512.34860479 -466.99609375 515.3671875 C-468.78775921 516.57552262 -470.57942588 517.78385596 -472.37109375 518.9921875 C-473.25796875 519.5903125 -474.14484375 520.1884375 -475.05859375 520.8046875 C-526.12109365 555.24218743 -526.12109365 555.24218743 -528.80853271 557.05464172 C-530.60040853 558.26311919 -532.39227865 559.47160511 -534.18414307 560.68009949 C-538.66006299 563.69879693 -543.13608154 566.71734791 -547.61230469 569.7355957 C-555.71353514 575.19833892 -563.81402468 580.66216494 -571.91085815 586.13142395 C-576.43878601 589.18989548 -580.96733787 592.24744223 -585.49609375 595.3046875 C-586.38077332 595.90199677 -587.26545288 596.49930603 -588.17694092 597.11471558 C-597.93891816 603.70394415 -607.7135137 610.27333008 -617.51953125 616.796875 C-618.39589233 617.38001968 -619.27225342 617.96316437 -620.1751709 618.5639801 C-624.30525017 621.31118166 -628.43743638 624.05512853 -632.57324219 626.79370117 C-640.66271392 632.16015042 -648.65600757 637.6353391 -656.56842041 643.25967407 C-662.85431135 647.71884364 -669.239897 652.01313124 -675.668396 656.26321411 C-679.21939054 658.61176751 -682.76383787 660.97017008 -686.30859375 663.328125 C-687.06453827 663.83084427 -687.82048279 664.33356354 -688.59933472 664.85151672 C-697.96718531 671.08705466 -707.29411751 677.38324861 -716.62109375 683.6796875 C-717.52333679 684.28867889 -718.42557983 684.89767029 -719.35516357 685.52511597 C-723.97377761 688.64269325 -728.59198281 691.76087539 -733.20996094 694.87939453 C-741.32993655 700.36236782 -749.45366715 705.83977285 -757.57717896 711.31750488 C-762.00990409 714.30654686 -766.44246635 717.29583033 -770.875 720.28515625 C-772.19578804 721.1758934 -772.19578804 721.1758934 -773.54325867 722.08462524 C-779.23018339 725.92001183 -784.91661483 729.75612884 -790.60275269 733.59268188 C-794.52037581 736.23594432 -798.43816045 738.87896732 -802.35595703 741.52197266 C-804.21264561 742.77462026 -806.06925619 744.02738349 -807.92578125 745.28027344 C-817.51539293 751.75185522 -827.10829959 758.21749784 -836.74609375 764.6171875 C-836.16886604 771.77481109 -835.10623884 778.77893768 -833.8503418 785.84326172 C-829.88251413 808.60487224 -830.96438982 831.9145513 -834.74609375 854.6171875 C-835.01728027 856.25856689 -835.01728027 856.25856689 -835.29394531 857.93310547 C-835.77444794 860.82840921 -836.25857578 863.72305804 -836.74609375 866.6171875 C-835.37227539 867.530448 -835.37227539 867.530448 -833.97070312 868.4621582 C-830.48825948 870.77763542 -827.00692443 873.09477505 -823.52587891 875.41235352 C-822.03495779 876.40465109 -820.54375819 877.3965304 -819.05224609 878.38793945 C-810.6376256 883.98158825 -802.25684693 889.61776228 -793.94044495 895.35650635 C-785.2313809 901.36131256 -776.45528783 907.26693426 -767.68359375 913.1796875 C-766.30219208 914.11154373 -766.30219208 914.11154373 -764.8928833 915.06222534 C-754.56963609 922.02530422 -744.23471848 928.97018313 -733.8671875 935.8671875 C-732.99748825 936.44589096 -732.127789 937.02459442 -731.23173523 937.62083435 C-727.13227322 940.34760879 -723.03065176 943.07104993 -718.92553711 945.78930664 C-710.83387705 951.15724131 -702.83833599 956.63380653 -694.92376709 962.25967407 C-688.63787615 966.71884364 -682.2522905 971.01313124 -675.8237915 975.26321411 C-672.27279696 977.61176751 -668.72834963 979.97017008 -665.18359375 982.328125 C-664.42764923 982.83084427 -663.67170471 983.33356354 -662.89285278 983.85151672 C-653.52500219 990.08705466 -644.19806999 996.38324861 -634.87109375 1002.6796875 C-633.51772919 1003.59317459 -633.51772919 1003.59317459 -632.13702393 1004.52511597 C-627.51840989 1007.64269325 -622.90020469 1010.76087539 -618.28222656 1013.87939453 C-612.84178735 1017.55302414 -607.39970178 1021.22420848 -601.95703125 1024.89453125 C-601.07244232 1025.49106506 -600.18785339 1026.08759888 -599.27645874 1026.70220947 C-595.70615253 1029.10980563 -592.1357742 1031.51729482 -588.56536865 1033.92474365 C-579.56888077 1039.99096211 -570.57283894 1046.05782802 -561.58132935 1052.13142395 C-557.05340149 1055.18989548 -552.52484963 1058.24744223 -547.99609375 1061.3046875 C-547.11141418 1061.90199677 -546.22673462 1062.49930603 -545.31524658 1063.11471558 C-535.55326934 1069.70394415 -525.7786738 1076.27333008 -515.97265625 1082.796875 C-515.09629517 1083.38001968 -514.21993408 1083.96316437 -513.3170166 1084.5639801 C-509.18693733 1087.31118166 -505.05475112 1090.05512853 -500.91894531 1092.79370117 C-492.84483564 1098.14993954 -484.86634069 1103.6141394 -476.96908569 1109.22795105 C-469.82445441 1114.29626157 -462.54861571 1119.15542171 -455.24609375 1123.9921875 C-453.84366227 1124.92373634 -452.44140395 1125.85554593 -451.03930664 1126.78759766 C-448.11816453 1128.72917327 -445.1962859 1130.66963321 -442.27392578 1132.609375 C-435.31155567 1137.23239936 -428.35991101 1141.87152261 -421.40722656 1146.50909424 C-417.87343602 1148.86602157 -414.33904719 1151.22205128 -410.8046875 1153.578125 C-409.62035835 1154.36767132 -408.43603185 1155.15722161 -407.25170898 1155.94677734 C-406.42485596 1156.4980127 -405.59800293 1157.04924805 -404.74609375 1157.6171875 C-400.34527438 1154.42093027 -396.1705978 1151.2813391 -392.43359375 1147.3046875 C-388.45884937 1143.24206612 -384.27862562 1139.63839946 -379.8359375 1136.09765625 C-377.66837836 1134.35758033 -375.5453978 1132.60156332 -373.4375 1130.79296875 C-354.9927132 1115.12969794 -334.0634134 1101.99241304 -312.74609375 1090.6171875 C-311.88806152 1090.15795898 -311.0300293 1089.69873047 -310.14599609 1089.22558594 C-223.62638664 1043.395654 -117.57423185 1033.0759199 -23.86425781 1061.79785156 C-6.0314316 1067.34073805 11.37217192 1073.58633078 28.25390625 1081.6171875 C29.23649414 1082.08237793 30.21908203 1082.54756836 31.23144531 1083.02685547 C66.72055498 1099.9676697 99.10068741 1122.18443973 127.71484375 1149.17529297 C130.3051743 1151.60208425 132.9358273 1153.98420253 135.56640625 1156.3671875 C136.47003906 1157.18703125 137.37367187 1158.006875 138.3046875 1158.8515625 C138.94792969 1159.43421875 139.59117188 1160.016875 140.25390625 1160.6171875 C147.23022026 1156.27128697 154.08672176 1151.75485869 160.921875 1147.19140625 C162.30238541 1146.27029808 162.30238541 1146.27029808 163.71078491 1145.33058167 C173.28731421 1138.93561762 182.83534409 1132.49869944 192.37890625 1126.0546875 C194.24279666 1124.79681295 196.10673003 1123.53900204 197.97070312 1122.28125 C201.82210426 1119.68237203 205.67332529 1117.08322753 209.52441406 1114.48388672 C217.71097262 1108.95857456 225.89980534 1103.43663498 234.08856201 1097.9145813 C238.5604456 1094.89893487 243.03216739 1091.88304854 247.50390625 1088.8671875 C249.29557215 1087.65885303 251.08723882 1086.45051969 252.87890625 1085.2421875 C253.76578125 1084.6440625 254.65265625 1084.0459375 255.56640625 1083.4296875 C263.62890632 1077.99218746 263.62890632 1077.99218746 266.31634521 1076.17973328 C268.10822103 1074.97125581 269.90009115 1073.76276989 271.69195557 1072.55427551 C276.16787549 1069.53557807 280.64389404 1066.51702709 285.12011719 1063.4987793 C293.22134764 1058.03603608 301.32183718 1052.57221006 309.41867065 1047.10295105 C313.94659851 1044.04447952 318.47515037 1040.98693277 323.00390625 1037.9296875 C323.88858582 1037.33237823 324.77326538 1036.73506897 325.68475342 1036.11965942 C335.44673066 1029.53043085 345.2213262 1022.96104492 355.02734375 1016.4375 C356.34188538 1015.56278297 356.34188538 1015.56278297 357.6829834 1014.6703949 C361.81306267 1011.92319334 365.94524888 1009.17924647 370.08105469 1006.44067383 C378.17052642 1001.07422458 386.16382007 995.5990359 394.07623291 989.97470093 C400.36212385 985.51553136 406.7477095 981.22124376 413.1762085 976.97116089 C416.72720304 974.62260749 420.27165037 972.26420492 423.81640625 969.90625 C424.57235077 969.40353073 425.32829529 968.90081146 426.10714722 968.38285828 C435.47499781 962.14732034 444.80193001 955.85112639 454.12890625 949.5546875 C455.03114929 948.94569611 455.93339233 948.33670471 456.86297607 947.70925903 C461.48159011 944.59168175 466.09979531 941.47349961 470.71777344 938.35498047 C478.83747548 932.87219191 486.96093034 927.39496838 495.08416748 921.91741943 C499.52106355 918.9255754 503.95781831 915.93352184 508.39453125 912.94140625 C509.71624832 912.05004974 509.71624832 912.05004974 511.06466675 911.14068604 C516.72137826 907.32566919 522.37747875 903.50974792 528.03320312 899.69326782 C531.92165272 897.06939157 535.81030637 894.44581782 539.69897461 891.82226562 C541.53517632 890.58332092 543.3712804 889.34423149 545.20727539 888.10498047 C555.86775207 880.90948074 566.54259635 873.73683224 577.25390625 866.6171875 C577.13797119 865.94252441 577.02203613 865.26786133 576.90258789 864.57275391 C576.37031277 861.46316065 575.84333219 858.35269147 575.31640625 855.2421875 C575.13400391 854.18128906 574.95160156 853.12039063 574.76367188 852.02734375 C565.78743571 798.82274393 577.58151916 743.14000069 608.5234375 698.79785156 C611.29535681 694.95896332 614.23477991 691.26432763 617.25390625 687.6171875 C617.72973145 687.03984863 618.20555664 686.46250977 618.69580078 685.86767578 C628.26922925 674.31783779 638.36886448 663.83541704 650.25390625 654.6171875 C650.7854834 654.19856445 651.31706055 653.77994141 651.86474609 653.34863281 C694.75267713 619.76034894 750.10290732 605.50576735 804.00390625 611.8046875 C848.84568657 617.54666528 889.7768373 637.20348779 922.25390625 668.6171875 C922.74842285 669.08592285 923.24293945 669.5546582 923.75244141 670.03759766 C936.15862168 681.80654235 946.19187079 695.14776463 955.25390625 709.6171875 C955.63256836 710.21660156 956.01123047 710.81601562 956.40136719 711.43359375 C973.50527008 738.90664506 984.15420975 773.69088771 984.4921875 806.1484375 C984.5068103 807.32663055 984.5068103 807.32663055 984.52172852 808.52862549 C984.69959737 826.58364796 984.24875638 843.91773647 980.25390625 861.6171875 C980.0719873 862.45507812 979.89006836 863.29296875 979.70263672 864.15625 C971.16164056 902.62507987 950.98721564 935.2079367 924.25390625 963.6171875 C923.63773438 964.27589844 923.0215625 964.93460938 922.38671875 965.61328125 C908.49931954 979.99903211 890.93903249 991.47438852 873.25390625 1000.6171875 C872.53009766 1000.99472168 871.80628906 1001.37225586 871.06054688 1001.76123047 C837.13403041 1019.24496897 788.74963905 1031.41473515 750.90844727 1021.19311523 C744.20054139 1019.98379192 740.81053524 1020.31896098 735.2194519 1024.17677307 C734.50121246 1024.69851608 733.78297302 1025.22025909 733.04296875 1025.7578125 C731.44386506 1026.87159661 729.84457437 1027.98511226 728.24511719 1029.09838867 C727.4224939 1029.68035004 726.59987061 1030.2623114 725.75231934 1030.86190796 C721.71087964 1033.70125284 717.60001532 1036.43574951 713.49609375 1039.18359375 C711.80287378 1040.32476206 710.11017475 1041.46670365 708.41796875 1042.609375 C707.55719727 1043.19041992 706.69642578 1043.77146484 705.80957031 1044.37011719 C704.92495117 1044.96727539 704.04033203 1045.56443359 703.12890625 1046.1796875 C701.24351741 1047.45186415 699.35810013 1048.72399867 697.47265625 1049.99609375 C691.7326093 1053.86910493 685.99320437 1057.74306677 680.25390625 1061.6171875 C678.5237661 1062.78499805 676.79362297 1063.95280418 675.06347656 1065.12060547 C668.47927355 1069.56481947 661.89517034 1074.00918127 655.3112793 1078.45385742 C637.77053285 1090.29505461 620.22393984 1102.12757927 602.67724609 1113.95996094 C597.28210625 1117.5981289 591.88712188 1121.23652737 586.4921875 1124.875 C585.60591675 1125.47272217 584.719646 1126.07044434 583.80651855 1126.6862793 C581.12231182 1128.49657812 578.43810837 1130.30688183 575.75390625 1132.1171875 C565.87421739 1138.78034321 555.99452471 1145.4434932 546.1144104 1152.10601807 C527.82499495 1164.43925378 509.53693469 1176.77448506 491.25390625 1189.1171875 C477.48534048 1198.41221818 463.71451658 1207.70389205 449.94140625 1216.9921875 C449.05021088 1217.59319275 448.1590155 1218.194198 447.24081421 1218.81341553 C440.00573294 1223.69256789 432.77050845 1228.57150784 425.53527832 1233.45043945 C419.21225416 1237.71425642 412.88928645 1241.97815707 406.56640625 1246.2421875 C405.67496918 1246.84335388 404.7835321 1247.44452026 403.86508179 1248.06390381 C390.99249754 1256.74508546 378.12232738 1265.4298361 365.25390625 1274.1171875 C352.3832964 1282.80601649 339.51092511 1291.49222611 326.63613892 1300.17486572 C323.95423851 1301.98353345 321.27240354 1303.79229818 318.59057617 1305.60107422 C310.22379738 1311.24387953 301.85629547 1316.88560653 293.48680115 1322.52438354 C289.61119235 1325.13560378 285.73595468 1327.74737451 281.86074829 1330.35919189 C280.03295101 1331.59087155 278.20497564 1332.82228697 276.37680054 1334.05340576 C265.29499206 1341.51613389 254.24756262 1349.0251214 243.25390625 1356.6171875 C243.37451416 1357.47546143 243.37451416 1357.47546143 243.49755859 1358.35107422 C245.27965307 1371.08504174 247.02189477 1383.81658823 248.25390625 1396.6171875 C248.36734375 1397.78765625 248.48078125 1398.958125 248.59765625 1400.1640625 C255.80121658 1491.80935781 228.29451918 1586.16492682 170.25390625 1661.6171875 C169.62613281 1662.42542969 168.99835938 1663.23367188 168.3515625 1664.06640625 C154.08927645 1682.17863455 138.54627224 1699.35454146 121.25390625 1714.6171875 C120.72684082 1715.08898438 120.19977539 1715.56078125 119.65673828 1716.046875 C94.7975255 1738.25733979 66.38673631 1757.35279452 36.26416016 1771.65478516 C34.12872308 1772.67711853 32.00978616 1773.7295302 29.890625 1774.78515625 C-2.63138299 1790.81718089 -38.17650234 1801.20941987 -73.93359375 1806.8671875 C-74.88041016 1807.01833008 -75.82722656 1807.16947266 -76.80273438 1807.32519531 C-95.39287968 1810.07584139 -114.03661261 1811.00043739 -132.80859375 1810.9296875 C-133.82490875 1810.92786469 -134.84122375 1810.92604187 -135.88833618 1810.92416382 C-191.58633115 1810.75705296 -246.43138527 1798.59569118 -296.74609375 1774.6171875 C-297.69516602 1774.16875488 -298.64423828 1773.72032227 -299.62207031 1773.25830078 C-327.90960315 1759.80258329 -353.72540906 1742.68059617 -377.74609375 1722.6171875 C-378.25283127 1722.19587051 -378.75956879 1721.77455353 -379.28166199 1721.34046936 C-388.01244633 1714.0605672 -396.26200482 1706.41912198 -404.27075195 1698.35327148 C-406.0682518 1696.54497142 -407.87631691 1694.74772773 -409.68554688 1692.95117188 C-416.49820794 1686.14658709 -422.78925459 1679.19204872 -428.74609375 1671.6171875 C-429.73436741 1670.41993561 -430.72606121 1669.22549034 -431.72265625 1668.03515625 C-444.14800997 1652.96743136 -455.13794605 1636.61652755 -464.74609375 1619.6171875 C-465.20048828 1618.81909668 -465.65488281 1618.02100586 -466.12304688 1617.19873047 C-510.1794994 1539.43241655 -524.11145352 1450.44836517 -510.19506836 1362.50610352 C-509.68338265 1359.2136745 -509.21212755 1355.91635799 -508.74609375 1352.6171875 C-520.62925523 1344.41084155 -532.58014304 1336.30864444 -544.55859375 1328.2421875 C-546.44316885 1326.97224753 -548.32768912 1325.70222619 -550.2121582 1324.43212891 C-554.11550855 1321.8014399 -558.01909065 1319.17109535 -561.92285156 1316.54101562 C-570.20267592 1310.96232503 -578.47998481 1305.37990513 -586.75717163 1299.79730225 C-589.44654733 1297.98345095 -592.1359893 1296.16969794 -594.82543945 1294.35595703 C-607.6256878 1285.7233074 -620.42295249 1277.08624414 -633.21917725 1268.44763184 C-646.163434 1259.70919742 -659.11011695 1250.97436746 -672.05859375 1242.2421875 C-672.94978912 1241.64118225 -673.8409845 1241.040177 -674.75918579 1240.42095947 C-681.08807639 1236.15291874 -687.41707293 1231.88503513 -693.74609375 1227.6171875 C-700.97533327 1222.74229553 -708.20452573 1217.8673338 -715.43359375 1212.9921875 C-716.32503082 1212.39102112 -717.2164679 1211.78985474 -718.13491821 1211.17047119 C-731.83213052 1201.93316609 -745.52639483 1192.69150188 -759.21917725 1183.44763184 C-777.5829873 1171.05055467 -795.95259866 1158.66208613 -814.32275391 1146.27441406 C-824.19205049 1139.61913548 -834.06085444 1132.96312638 -843.92974854 1126.30725098 C-846.61462095 1124.49649609 -849.29949666 1122.68574609 -851.984375 1120.875 C-852.87064575 1120.27727783 -853.7569165 1119.67955566 -854.67004395 1119.0637207 C-860.07512003 1115.41844254 -865.48031124 1111.77333515 -870.8855896 1108.12835693 C-888.35319757 1096.34929669 -905.81995323 1084.56898306 -923.28152466 1072.78097534 C-937.57096808 1063.13441996 -951.86110805 1053.488897 -966.15380859 1043.84716797 C-968.02074873 1042.58768095 -969.88761309 1041.3280816 -971.75439453 1040.06835938 C-972.63981934 1039.47087891 -973.52524414 1038.87339844 -974.4375 1038.2578125 C-975.2978183 1037.67700424 -976.1581366 1037.09619598 -977.04452515 1036.49778748 C-978.7063076 1035.37787404 -980.36969346 1034.26033544 -982.03482056 1033.145401 C-985.52185043 1030.80906891 -988.9895746 1028.46142297 -992.38818359 1025.99780273 C-993.42668457 1025.25860596 -994.46518555 1024.51940918 -995.53515625 1023.7578125 C-996.81447021 1022.81663574 -996.81447021 1022.81663574 -998.11962891 1021.85644531 C-1002.64374926 1019.72180738 -1007.22785789 1020.81069085 -1011.9765625 1021.81640625 C-1061.16525285 1030.90113749 -1116.18790518 1014.47866722 -1156.74609375 986.6171875 C-1162.28419269 982.53148215 -1167.54664749 978.12209081 -1172.74609375 973.6171875 C-1173.70386719 972.78960938 -1174.66164063 971.96203125 -1175.6484375 971.109375 C-1194.74410054 954.22045268 -1210.03207824 934.23735539 -1221.74609375 911.6171875 C-1222.08592285 910.96878906 -1222.42575195 910.32039062 -1222.77587891 909.65234375 C-1235.66061608 884.75787308 -1243.70001052 855.97845846 -1243.984375 827.8671875 C-1243.99416885 827.05957474 -1244.00396271 826.25196198 -1244.01405334 825.4198761 C-1244.38069934 787.32770757 -1237.81168188 752.40397446 -1219.74609375 718.6171875 C-1219.42382812 718.01132812 -1219.1015625 717.40546875 -1218.76953125 716.78125 C-1203.98655828 689.25847919 -1182.25926349 665.53028506 -1156.74609375 647.6171875 C-1156.16327637 647.2056543 -1155.58045898 646.79412109 -1154.97998047 646.37011719 C-1116.80563294 619.77825167 -1066.24007837 605.15055739 -1019.70703125 611.35546875 C-1018.73467529 611.47897705 -1017.76231934 611.60248535 -1016.76049805 611.72973633 C-1014.95057785 611.97780122 -1013.14553234 612.26699292 -1011.35083008 612.6081543 C-1003.69655531 613.68859066 -999.56772811 610.4587782 -993.59616089 605.97521973 C-989.99440803 603.33137165 -986.25200599 600.89009157 -982.5390625 598.40625 C-980.81891349 597.24557711 -979.09936623 596.08401199 -977.38037109 594.92163086 C-964.22520163 586.03457177 -951.07013568 577.14807572 -937.8515625 568.35546875 C-936.54849403 567.48852386 -936.54849403 567.48852386 -935.21910095 566.60406494 C-931.1241164 563.88078473 -927.02689756 561.16094394 -922.92651367 558.44580078 C-914.83457726 553.0775509 -906.83866643 547.60080336 -898.92376709 541.97470093 C-892.63787615 537.51553136 -886.2522905 533.22124376 -879.8237915 528.97116089 C-876.27279696 526.62260749 -872.72834963 524.26420492 -869.18359375 521.90625 C-868.42764923 521.40353073 -867.67170471 520.90081146 -866.89285278 520.38285828 C-857.52500219 514.14732034 -848.19806999 507.85112639 -838.87109375 501.5546875 C-837.96885071 500.94569611 -837.06660767 500.33670471 -836.13702393 499.70925903 C-831.51840989 496.59168175 -826.90020469 493.47349961 -822.28222656 490.35498047 C-814.16509193 484.87392553 -806.04419669 479.39844731 -797.92352295 473.92263794 C-793.44755337 470.90439147 -788.97183657 467.88577021 -784.49609375 464.8671875 C-782.70442829 463.65885238 -780.91276162 462.45051904 -779.12109375 461.2421875 C-778.23421875 460.6440625 -777.34734375 460.0459375 -776.43359375 459.4296875 C-768.37109373 453.99218749 -768.37109373 453.99218749 -765.68365479 452.17973328 C-763.89177897 450.97125581 -762.09990885 449.76276989 -760.30804443 448.55427551 C-755.83212451 445.53557807 -751.35610596 442.51702709 -746.87988281 439.4987793 C-738.77865236 434.03603608 -730.67816282 428.57221006 -722.58132935 423.10295105 C-718.05340149 420.04447952 -713.52484963 416.98693277 -708.99609375 413.9296875 C-708.11141418 413.33237823 -707.22673462 412.73506897 -706.31524658 412.11965942 C-696.55326934 405.53043085 -686.7786738 398.96104492 -676.97265625 392.4375 C-676.09629517 391.85435532 -675.21993408 391.27121063 -674.3170166 390.6703949 C-670.18693733 387.92319334 -666.05475112 385.17924647 -661.91894531 382.44067383 C-653.82947358 377.07422458 -645.83617993 371.5990359 -637.92376709 365.97470093 C-631.63787615 361.51553136 -625.2522905 357.22124376 -618.8237915 352.97116089 C-615.27279696 350.62260749 -611.72834963 348.26420492 -608.18359375 345.90625 C-607.42764923 345.40353073 -606.67170471 344.90081146 -605.89285278 344.38285828 C-596.52500219 338.14732034 -587.19806999 331.85112639 -577.87109375 325.5546875 C-576.96885071 324.94569611 -576.06660767 324.33670471 -575.13702393 323.70925903 C-570.51840989 320.59168175 -565.90020469 317.47349961 -561.28222656 314.35498047 C-553.16509193 308.87392553 -545.04419669 303.39844731 -536.92352295 297.92263794 C-532.44755337 294.90439147 -527.97183657 291.88577021 -523.49609375 288.8671875 C-521.70442829 287.65885238 -519.91276162 286.45051904 -518.12109375 285.2421875 C-517.23421875 284.6440625 -516.34734375 284.0459375 -515.43359375 283.4296875 C-464.37109369 248.99218746 -464.37109369 248.99218746 -461.68365479 247.17973328 C-459.89177897 245.97125581 -458.09990885 244.76276989 -456.30804443 243.55427551 C-451.83212451 240.53557807 -447.35610596 237.51702709 -442.87988281 234.4987793 C-434.77871903 229.03608104 -426.67829915 223.57229557 -418.58152771 218.10308838 C-414.05353578 215.04456802 -409.52496419 211.98690683 -404.99609375 208.9296875 C-404.11573456 208.33536926 -403.23537537 207.74105103 -402.32833862 207.12872314 C-387.18463425 196.9084169 -371.99554909 186.75720701 -356.77636719 176.6496582 C-355.99396164 176.12947617 -355.21155609 175.60929413 -354.40544128 175.073349 C-352.95358058 174.10817677 -351.501081 173.14396453 -350.04780579 172.18092346 C-347.44123078 170.44760585 -344.88440503 168.72426068 -342.40795898 166.80712891 C-340.74609375 165.6171875 -340.74609375 165.6171875 -338.74609375 165.6171875 C-339.07609375 164.9571875 -339.40609375 164.2971875 -339.74609375 163.6171875 C-342.3424741 111.93933251 -322.45660785 60.38230017 -288.62109375 21.8046875 C-287.00949205 20.06302671 -285.38245422 18.33560735 -283.74609375 16.6171875 C-282.91513184 15.73740234 -282.91513184 15.73740234 -282.06738281 14.83984375 C-268.87468307 0.955732 -254.541949 -11.04607911 -237.74609375 -20.3828125 C-236.60164795 -21.02065674 -236.60164795 -21.02065674 -235.43408203 -21.67138672 C-160.82545618 -62.84520246 -65.34520526 -56.70067597 0 0 Z M-251.64453125 1298.66796875 C-253.52537042 1300.41246456 -255.45227406 1302.05186318 -257.43359375 1303.6796875 C-261.29577965 1306.98500009 -264.53124582 1310.68792892 -267.74609375 1314.6171875 C-268.49761719 1315.53113281 -269.24914062 1316.44507813 -270.0234375 1317.38671875 C-300.17335796 1355.2527326 -313.38574856 1401.62595602 -308.5 1449.67578125 C-304.40831279 1484.75149653 -289.07700825 1518.20409533 -265.74609375 1544.6171875 C-265.29266602 1545.13619629 -264.83923828 1545.65520508 -264.37207031 1546.18994141 C-257.70847399 1553.78163381 -250.79766488 1560.47016648 -242.74609375 1566.6171875 C-241.83601562 1567.34292969 -240.9259375 1568.06867188 -239.98828125 1568.81640625 C-209.77095283 1592.40568307 -171.80434474 1605.09649893 -133.55859375 1604.9296875 C-132.88799927 1604.92786469 -132.21740479 1604.92604187 -131.52648926 1604.92416382 C-120.04085804 1604.87194403 -108.97585596 1604.06556484 -97.74609375 1601.6171875 C-96.96943359 1601.45089844 -96.19277344 1601.28460937 -95.39257812 1601.11328125 C-50.89809805 1591.25806417 -10.8400143 1563.6758783 14.25390625 1525.6171875 C38.95298286 1486.7546724 49.59026905 1439.87899378 39.99609375 1394.421875 C29.27163286 1346.51638842 2.02915146 1305.9252441 -39.4453125 1279.19921875 C-105.87599138 1237.58500455 -194.11833768 1245.08587875 -251.64453125 1298.66796875 Z " fill="#FF8300" transform="translate(1243.74609375,48.3828125)"/>
</svg>
