<?xml version="1.0" encoding="UTF-8"?>
<!DOCTYPE svg PUBLIC "-//W3C//DTD SVG 1.1//EN" "http://www.w3.org/Graphics/SVG/1.1/DTD/svg11.dtd">
<svg xmlns="http://www.w3.org/2000/svg" version="1.1" width="5840px" height="1859px" style="shape-rendering:geometricPrecision; text-rendering:geometricPrecision; image-rendering:optimizeQuality; fill-rule:evenodd; clip-rule:evenodd" xmlns:xlink="http://www.w3.org/1999/xlink">
<g><path style="opacity:0.995" fill="#ff8600" d="M 1097.5,-0.5 C 1105.83,-0.5 1114.17,-0.5 1122.5,-0.5C 1195.32,6.20859 1250.82,40.5419 1289,102.5C 1292.78,109.734 1296.28,117.067 1299.5,124.5C 1298.17,178.833 1298.17,233.167 1299.5,287.5C 1265.93,359.537 1209.6,400.703 1130.5,411C 1094.38,414.48 1059.71,408.98 1026.5,394.5C 931.615,458.435 836.615,522.102 741.5,585.5C 741.169,497.763 741.503,410.096 742.5,322.5C 796.185,285.501 850.185,248.834 904.5,212.5C 903.867,133.924 936.2,73.0907 1001.5,30C 1031.25,12.4023 1063.25,2.23563 1097.5,-0.5 Z"/></g>
<g><path style="opacity:0.952" fill="#fe8300" d="M 1299.5,124.5 C 1322.14,178.812 1322.14,233.145 1299.5,287.5C 1298.17,233.167 1298.17,178.833 1299.5,124.5 Z"/></g>
<g><path style="opacity:0.995" fill="#ff8a00" d="M 742.5,322.5 C 741.503,410.096 741.169,497.763 741.5,585.5C 630.245,661.472 518.578,736.972 406.5,812C 405.919,812.893 405.585,813.893 405.5,815C 413.467,847.857 413.467,880.69 405.5,913.5C 405.709,914.086 406.043,914.586 406.5,915C 518.578,990.028 630.245,1065.53 741.5,1141.5C 741.5,1286.5 741.5,1431.5 741.5,1576.5C 725.638,1518.75 723.638,1460.42 735.5,1401.5C 571.216,1289.68 406.549,1178.35 241.5,1067.5C 158.447,1079.54 90.9469,1052.87 39,987.5C 16.8625,956.566 3.69585,922.233 -0.5,884.5C -0.5,871.167 -0.5,857.833 -0.5,844.5C 9.9483,766.431 50.615,710.264 121.5,676C 158.949,659.965 197.782,655.131 238,661.5C 406.293,548.61 574.46,435.61 742.5,322.5 Z"/></g>
<g><path class="lchar" style="opacity:0.995" fill="white" d="M 2536.5,430.5 C 2577.17,430.5 2617.83,430.5 2658.5,430.5C 2658.5,678.167 2658.5,925.833 2658.5,1173.5C 2811.5,1173.5 2964.5,1173.5 3117.5,1173.5C 3117.5,1208.83 3117.5,1244.17 3117.5,1279.5C 2923.83,1279.5 2730.17,1279.5 2536.5,1279.5C 2536.5,996.5 2536.5,713.5 2536.5,430.5 Z"/></g>
<g><path class="achar" style="opacity:0.991" fill="white" d="M 3511.5,430.5 C 3552.07,430.17 3592.57,430.503 3633,431.5C 3761.17,713.833 3889.33,996.167 4017.5,1278.5C 3974.84,1279.67 3932.17,1279.83 3889.5,1279C 3858.6,1208.81 3827.6,1138.64 3796.5,1068.5C 3646.5,1067.33 3496.5,1067.17 3346.5,1068C 3315.21,1138.02 3284.21,1208.19 3253.5,1278.5C 3211.5,1279.83 3169.5,1279.83 3127.5,1278.5C 3255.51,995.807 3383.51,713.141 3511.5,430.5 Z M 3570.5,556.5 C 3574.81,563.796 3578.65,571.462 3582,579.5C 3639.13,709.415 3695.96,839.415 3752.5,969.5C 3631.5,969.667 3510.5,969.5 3389.5,969C 3450.25,831.67 3510.58,694.17 3570.5,556.5 Z"/></g>
<g><path class="rchar" style="opacity:0.992" fill="white" d="M 4142.5,430.5 C 4261.5,430.333 4380.5,430.5 4499.5,431C 4548.86,432.206 4596.86,440.873 4643.5,457C 4755.51,499.695 4816.67,580.861 4827,700.5C 4832.07,759.105 4821.73,814.772 4796,867.5C 4760.98,929.271 4709.81,971.605 4642.5,994.5C 4642.35,995.552 4642.52,996.552 4643,997.5C 4709.5,1091.17 4776,1184.83 4842.5,1278.5C 4798.17,1279.67 4753.84,1279.83 4709.5,1279C 4648.44,1192.94 4587.78,1106.61 4527.5,1020C 4439.86,1021.41 4352.19,1021.91 4264.5,1021.5C 4264.5,1107.5 4264.5,1193.5 4264.5,1279.5C 4223.83,1279.5 4183.17,1279.5 4142.5,1279.5C 4142.5,996.5 4142.5,713.5 4142.5,430.5 Z M 4264.5,536.5 C 4343.84,536.071 4423.18,536.571 4502.5,538C 4548.32,539.785 4590.99,552.119 4630.5,575C 4673.49,604.444 4697.99,645.278 4704,697.5C 4710.22,743.048 4702.56,786.048 4681,826.5C 4656.46,864.706 4622.3,890.206 4578.5,903C 4555.29,909.813 4531.62,914.146 4507.5,916C 4426.51,917.45 4345.51,917.95 4264.5,917.5C 4264.5,790.5 4264.5,663.5 4264.5,536.5 Z"/></g>
<g><path class="dchar" style="opacity:0.993" fill="white" d="M 5839.5,837.5 C 5839.5,849.167 5839.5,860.833 5839.5,872.5C 5836.88,976.343 5801.05,1066.68 5732,1143.5C 5661.81,1213.68 5577.31,1256.51 5478.5,1272C 5460.58,1274.73 5442.58,1276.73 5424.5,1278C 5290.84,1279.46 5157.18,1279.96 5023.5,1279.5C 5023.5,996.5 5023.5,713.5 5023.5,430.5C 5151.17,430.333 5278.83,430.5 5406.5,431C 5504.99,433.056 5594.66,461.722 5675.5,517C 5762.37,581.331 5814.87,667.165 5833,774.5C 5836.22,795.547 5838.39,816.547 5839.5,837.5 Z M 5145.5,536.5 C 5224.83,536.333 5304.17,536.5 5383.5,537C 5447.17,536.931 5507.17,551.598 5563.5,581C 5652.68,632.766 5703.18,710.266 5715,813.5C 5723.44,885.512 5710.78,953.512 5677,1017.5C 5631.64,1092.47 5566.14,1140.3 5480.5,1161C 5446.62,1168.88 5412.29,1172.88 5377.5,1173C 5300.17,1173.5 5222.83,1173.67 5145.5,1173.5C 5145.5,961.167 5145.5,748.833 5145.5,536.5 Z"/></g>
<g><path style="opacity:0.997" fill="#ff6e00" d="M 2103.5,675.5 C 2103.17,801.668 2103.5,927.668 2104.5,1053.5C 2066.36,1070.39 2026.69,1075.06 1985.5,1067.5C 1983.47,1068.56 1981.47,1069.56 1979.5,1070.5C 1979.5,934.833 1979.5,799.167 1979.5,663.5C 2021.99,654.454 2063.32,658.454 2103.5,675.5 Z"/></g>
<g><path style="opacity:0.995" fill="#ff7300" d="M 1979.5,663.5 C 1979.5,799.167 1979.5,934.833 1979.5,1070.5C 1918.11,1112.55 1856.45,1154.22 1794.5,1195.5C 1794.5,1107.83 1794.5,1020.17 1794.5,932.5C 1803.78,926.548 1812.78,920.215 1821.5,913.5C 1805.06,835.013 1825.39,767.846 1882.5,712C 1910.19,686.822 1942.52,670.655 1979.5,663.5 Z"/></g>
<g><path style="opacity:0.993" fill="#ff6800" d="M 2103.5,675.5 C 2172.78,707.343 2213.61,761.009 2226,836.5C 2234.32,921.667 2203.82,988.833 2134.5,1038C 2124.92,1043.96 2114.92,1049.12 2104.5,1053.5C 2103.5,927.668 2103.17,801.668 2103.5,675.5 Z"/></g>
<g><path style="opacity:0.995" fill="#ff7900" d="M 1794.5,932.5 C 1794.5,1020.17 1794.5,1107.83 1794.5,1195.5C 1732.8,1237.86 1670.8,1279.86 1608.5,1321.5C 1608.5,1233.83 1608.5,1146.17 1608.5,1058.5C 1670.2,1016.14 1732.2,974.142 1794.5,932.5 Z"/></g>
<g><path style="opacity:0.994" fill="#ff8000" d="M 1608.5,1058.5 C 1608.5,1146.17 1608.5,1233.83 1608.5,1321.5C 1567.44,1348.79 1526.6,1376.45 1486,1404.5C 1506.94,1533.31 1473.61,1645.64 1386,1741.5C 1360.1,1768.34 1330.94,1790.67 1298.5,1808.5C 1298.5,1587.17 1298.5,1365.83 1298.5,1144.5C 1329.95,1162.09 1358.45,1183.76 1384,1209.5C 1458.63,1158.77 1533.47,1108.44 1608.5,1058.5 Z"/></g>
<g><path style="opacity:0.995" fill="#ff8600" d="M 1298.5,1144.5 C 1298.5,1365.83 1298.5,1587.17 1298.5,1808.5C 1247.44,1838.02 1192.44,1854.68 1133.5,1858.5C 1117.83,1858.5 1102.17,1858.5 1086.5,1858.5C 959.693,1847.08 860.526,1789.08 789,1684.5C 767.448,1651.06 751.615,1615.06 741.5,1576.5C 741.5,1431.5 741.5,1286.5 741.5,1141.5C 774.1,1162.92 806.6,1184.59 839,1206.5C 937.212,1113.22 1053.38,1078.39 1187.5,1102C 1226.93,1110.19 1263.93,1124.36 1298.5,1144.5 Z M 1095.5,1300.5 C 1171.33,1298.15 1228.16,1329.48 1266,1394.5C 1293.33,1449.17 1293.33,1503.83 1266,1558.5C 1227.91,1623.97 1170.74,1655.14 1094.5,1652C 1034.17,1644.6 988.332,1615.1 957,1563.5C 925.667,1505.5 925.667,1447.5 957,1389.5C 988.61,1337.43 1034.78,1307.76 1095.5,1300.5 Z"/></g>
</svg>
